<svg width="197" height="32" viewBox="0 0 197 32" fill="none" xmlns="http://www.w3.org/2000/svg">
<g clip-path="url(#clip0)">
<path d="M10.2764 25.82C9.26838 26.132 8.17638 26.288 7.00038 26.288C5.48838 26.288 4.36038 25.976 3.61638 25.352C2.89638 24.728 2.41638 23.78 2.17638 22.508C1.96038 21.212 1.85238 19.328 1.85238 16.856C1.85238 14.312 1.98438 12.38 2.24838 11.06C2.53638 9.716 3.04038 8.768 3.76038 8.216C4.48038 7.64 5.53638 7.352 6.92838 7.352C8.08038 7.352 9.16038 7.484 10.1684 7.748V9.764C9.37638 9.548 8.48838 9.44 7.50438 9.44C6.54438 9.44 5.83638 9.632 5.38038 10.016C4.92438 10.376 4.61238 11.06 4.44438 12.068C4.30038 13.052 4.22838 14.624 4.22838 16.784C4.22838 19.016 4.30038 20.636 4.44438 21.644C4.61238 22.652 4.92438 23.336 5.38038 23.696C5.83638 24.032 6.55638 24.2 7.54038 24.2C8.66838 24.2 9.58038 24.08 10.2764 23.84V25.82ZM17.975 26.288C16.319 26.288 15.119 26.036 14.375 25.532C13.631 25.028 13.139 24.152 12.899 22.904C12.683 21.656 12.575 19.64 12.575 16.856C12.575 14.072 12.683 12.044 12.899 10.772C13.139 9.5 13.631 8.612 14.375 8.108C15.119 7.604 16.319 7.352 17.975 7.352C19.655 7.352 20.855 7.604 21.575 8.108C22.319 8.612 22.799 9.5 23.015 10.772C23.255 12.02 23.375 14.048 23.375 16.856C23.375 19.64 23.255 21.656 23.015 22.904C22.799 24.152 22.319 25.028 21.575 25.532C20.855 26.036 19.655 26.288 17.975 26.288ZM17.975 24.2C18.959 24.2 19.655 24.032 20.063 23.696C20.471 23.36 20.723 22.724 20.819 21.788C20.939 20.852 20.999 19.208 20.999 16.856C20.999 14.48 20.939 12.824 20.819 11.888C20.723 10.952 20.471 10.316 20.063 9.98C19.655 9.62 18.959 9.44 17.975 9.44C16.991 9.44 16.295 9.62 15.887 9.98C15.503 10.316 15.251 10.964 15.131 11.924C15.011 12.86 14.951 14.504 14.951 16.856C14.951 19.184 15.011 20.828 15.131 21.788C15.251 22.724 15.503 23.36 15.887 23.696C16.295 24.032 16.991 24.2 17.975 24.2ZM30.3213 26.288C29.6253 26.288 28.8693 26.24 28.0533 26.144C27.2613 26.048 26.6253 25.94 26.1453 25.82V23.84C26.5533 23.936 27.1293 24.02 27.8733 24.092C28.6173 24.164 29.3373 24.2 30.0333 24.2C31.1373 24.2 31.8813 23.948 32.2653 23.444C32.6733 22.916 32.8773 22.112 32.8773 21.032C32.8773 20.12 32.8293 19.472 32.7333 19.088C32.6373 18.68 32.4813 18.404 32.2653 18.26C32.0733 18.116 31.7493 18.008 31.2933 17.936L28.3053 17.432C27.3693 17.264 26.7093 16.832 26.3253 16.136C25.9653 15.416 25.7853 14.264 25.7853 12.68C25.7853 10.688 26.2053 9.308 27.0453 8.54C27.8853 7.748 29.1333 7.352 30.7893 7.352C31.4373 7.352 32.1093 7.4 32.8053 7.496C33.5013 7.592 34.0773 7.7 34.5333 7.82V9.836C34.1493 9.716 33.6093 9.62 32.9133 9.548C32.2413 9.476 31.5693 9.44 30.8973 9.44C29.9613 9.44 29.2653 9.656 28.8093 10.088C28.3773 10.52 28.1613 11.324 28.1613 12.5C28.1613 13.316 28.1973 13.916 28.2693 14.3C28.3653 14.684 28.5093 14.948 28.7013 15.092C28.9173 15.236 29.2413 15.344 29.6733 15.416L32.5173 15.884C33.1653 15.98 33.6813 16.172 34.0653 16.46C34.4493 16.748 34.7373 17.24 34.9293 17.936C35.1213 18.608 35.2173 19.592 35.2173 20.888C35.2173 22.856 34.8333 24.248 34.0653 25.064C33.2973 25.88 32.0493 26.288 30.3213 26.288ZM38.7985 26V9.728H36.6745V7.64H38.7985V2.312H41.1745V7.64H43.8025V9.728H41.1745V26H38.7985ZM46.2305 7.64H48.3545L48.4985 10.988H48.7145C49.0025 9.596 49.4705 8.648 50.1185 8.144C50.7905 7.616 51.6665 7.352 52.7465 7.352V9.872C51.2105 9.872 50.1305 10.424 49.5065 11.528C48.9065 12.608 48.6065 14.372 48.6065 16.82V26H46.2305V7.64ZM63.0468 23.48H62.8668C62.6268 24.392 62.1948 25.088 61.5708 25.568C60.9708 26.048 60.1068 26.288 58.9788 26.288C57.8268 26.288 56.9628 26.072 56.3868 25.64C55.8108 25.208 55.4268 24.524 55.2348 23.588C55.0428 22.628 54.9468 21.248 54.9468 19.448V7.64H57.3228V18.548C57.3228 20.252 57.3828 21.488 57.5028 22.256C57.6468 23 57.8868 23.504 58.2228 23.768C58.5828 24.008 59.1708 24.128 59.9868 24.128C60.9228 24.128 61.5948 23.864 62.0028 23.336C62.4348 22.808 62.6988 22.088 62.7948 21.176C62.8908 20.264 62.9388 18.884 62.9388 17.036V7.64H65.3148V26H63.1908L63.0468 23.48ZM76.9326 25.82C75.9246 26.132 74.8326 26.288 73.6566 26.288C72.1446 26.288 71.0166 25.976 70.2726 25.352C69.5526 24.728 69.0726 23.78 68.8326 22.508C68.6166 21.212 68.5086 19.328 68.5086 16.856C68.5086 14.312 68.6406 12.38 68.9046 11.06C69.1926 9.716 69.6966 8.768 70.4166 8.216C71.1366 7.64 72.1926 7.352 73.5846 7.352C74.7366 7.352 75.8166 7.484 76.8246 7.748V9.764C76.0326 9.548 75.1446 9.44 74.1606 9.44C73.2006 9.44 72.4926 9.632 72.0366 10.016C71.5806 10.376 71.2686 11.06 71.1006 12.068C70.9566 13.052 70.8846 14.624 70.8846 16.784C70.8846 19.016 70.9566 20.636 71.1006 21.644C71.2686 22.652 71.5806 23.336 72.0366 23.696C72.4926 24.032 73.2126 24.2 74.1966 24.2C75.3246 24.2 76.2366 24.08 76.9326 23.84V25.82ZM80.5993 26V9.728H78.4753V7.64H80.5993V2.312H82.9753V7.64H85.6033V9.728H82.9753V26H80.5993ZM92.7875 26.288C91.1315 26.288 89.9315 26.036 89.1875 25.532C88.4435 25.028 87.9515 24.152 87.7115 22.904C87.4955 21.656 87.3875 19.64 87.3875 16.856C87.3875 14.072 87.4955 12.044 87.7115 10.772C87.9515 9.5 88.4435 8.612 89.1875 8.108C89.9315 7.604 91.1315 7.352 92.7875 7.352C94.4675 7.352 95.6675 7.604 96.3875 8.108C97.1315 8.612 97.6115 9.5 97.8275 10.772C98.0675 12.02 98.1875 14.048 98.1875 16.856C98.1875 19.64 98.0675 21.656 97.8275 22.904C97.6115 24.152 97.1315 25.028 96.3875 25.532C95.6675 26.036 94.4675 26.288 92.7875 26.288ZM92.7875 24.2C93.7715 24.2 94.4675 24.032 94.8755 23.696C95.2835 23.36 95.5355 22.724 95.6315 21.788C95.7515 20.852 95.8115 19.208 95.8115 16.856C95.8115 14.48 95.7515 12.824 95.6315 11.888C95.5355 10.952 95.2835 10.316 94.8755 9.98C94.4675 9.62 93.7715 9.44 92.7875 9.44C91.8035 9.44 91.1075 9.62 90.6995 9.98C90.3155 10.316 90.0635 10.964 89.9435 11.924C89.8235 12.86 89.7635 14.504 89.7635 16.856C89.7635 19.184 89.8235 20.828 89.9435 21.788C90.0635 22.724 90.3155 23.36 90.6995 23.696C91.1075 24.032 91.8035 24.2 92.7875 24.2ZM101.426 7.64H103.55L103.694 10.988H103.91C104.198 9.596 104.666 8.648 105.314 8.144C105.986 7.616 106.862 7.352 107.942 7.352V9.872C106.406 9.872 105.326 10.424 104.702 11.528C104.102 12.608 103.802 14.372 103.802 16.82V26H101.426V7.64ZM113.211 26.288C112.179 26.288 111.351 26.132 110.727 25.82C110.127 25.484 109.683 24.932 109.395 24.164C109.131 23.396 108.999 22.316 108.999 20.924C108.999 19.532 109.119 18.464 109.359 17.72C109.623 16.952 110.043 16.4 110.619 16.064C111.195 15.728 112.023 15.56 113.103 15.56C113.847 15.56 115.143 15.62 116.991 15.74V14.3C116.991 12.788 116.907 11.708 116.739 11.06C116.571 10.412 116.259 9.98 115.803 9.764C115.347 9.548 114.579 9.44 113.499 9.44C112.155 9.44 110.907 9.56 109.755 9.8V7.784C111.243 7.496 112.707 7.352 114.147 7.352C115.563 7.352 116.631 7.556 117.351 7.964C118.095 8.372 118.611 9.068 118.899 10.052C119.211 11.012 119.367 12.44 119.367 14.336V26H117.243L117.099 23.48H116.919C116.487 25.352 115.251 26.288 113.211 26.288ZM113.823 24.128C114.567 24.128 115.167 24.032 115.623 23.84C116.079 23.624 116.403 23.156 116.595 22.436C116.859 21.548 116.991 20.3 116.991 18.692V17.36H113.679C113.031 17.36 112.539 17.444 112.203 17.612C111.867 17.78 111.627 18.104 111.483 18.584C111.363 19.064 111.303 19.796 111.303 20.78C111.303 21.716 111.363 22.412 111.483 22.868C111.627 23.324 111.867 23.648 112.203 23.84C112.563 24.032 113.103 24.128 113.823 24.128Z" fill="white"/>
<path d="M122.941 7.64H125.065L125.209 10.988H125.425C125.713 9.596 126.181 8.648 126.829 8.144C127.501 7.616 128.377 7.352 129.457 7.352V9.872C127.921 9.872 126.841 10.424 126.217 11.528C125.617 12.608 125.317 14.372 125.317 16.82V26H122.941V7.64ZM131.73 2.168V-0.748001H134.214V2.168H131.73ZM131.766 26V7.64H134.142V26H131.766ZM142.78 26.288C141.124 26.288 139.924 26.036 139.18 25.532C138.436 25.028 137.944 24.152 137.704 22.904C137.488 21.656 137.38 19.64 137.38 16.856C137.38 14.072 137.488 12.044 137.704 10.772C137.944 9.5 138.436 8.612 139.18 8.108C139.924 7.604 141.124 7.352 142.78 7.352C144.46 7.352 145.66 7.604 146.38 8.108C147.124 8.612 147.604 9.5 147.82 10.772C148.06 12.02 148.18 14.048 148.18 16.856C148.18 19.64 148.06 21.656 147.82 22.904C147.604 24.152 147.124 25.028 146.38 25.532C145.66 26.036 144.46 26.288 142.78 26.288ZM142.78 24.2C143.764 24.2 144.46 24.032 144.868 23.696C145.276 23.36 145.528 22.724 145.624 21.788C145.744 20.852 145.804 19.208 145.804 16.856C145.804 14.48 145.744 12.824 145.624 11.888C145.528 10.952 145.276 10.316 144.868 9.98C144.46 9.62 143.764 9.44 142.78 9.44C141.796 9.44 141.1 9.62 140.692 9.98C140.308 10.316 140.056 10.964 139.936 11.924C139.816 12.86 139.756 14.504 139.756 16.856C139.756 19.184 139.816 20.828 139.936 21.788C140.056 22.724 140.308 23.36 140.692 23.696C141.1 24.032 141.796 24.2 142.78 24.2ZM167.042 15.092C167.042 13.364 166.982 12.128 166.862 11.384C166.742 10.64 166.514 10.148 166.178 9.908C165.842 9.644 165.29 9.512 164.522 9.512C163.586 9.512 162.914 9.764 162.506 10.268C162.098 10.748 161.846 11.444 161.75 12.356C161.654 13.244 161.606 14.66 161.606 16.604V26H159.23V15.092C159.23 13.364 159.17 12.128 159.05 11.384C158.93 10.64 158.702 10.148 158.366 9.908C158.054 9.644 157.514 9.512 156.746 9.512C155.81 9.512 155.126 9.776 154.694 10.304C154.286 10.832 154.034 11.564 153.938 12.5C153.842 13.412 153.794 14.78 153.794 16.604V26H151.418V7.64H153.542L153.686 10.16H153.902C154.142 9.272 154.55 8.588 155.126 8.108C155.702 7.604 156.554 7.352 157.682 7.352C158.858 7.352 159.71 7.568 160.238 8C160.79 8.432 161.162 9.152 161.354 10.16H161.606C161.846 9.248 162.254 8.552 162.83 8.072C163.43 7.592 164.294 7.352 165.422 7.352C166.55 7.352 167.39 7.58 167.942 8.036C168.518 8.468 168.902 9.152 169.094 10.088C169.31 11.024 169.418 12.368 169.418 14.12V26H167.042V15.092ZM176.281 26.288C175.249 26.288 174.421 26.132 173.797 25.82C173.197 25.484 172.753 24.932 172.465 24.164C172.201 23.396 172.069 22.316 172.069 20.924C172.069 19.532 172.189 18.464 172.429 17.72C172.693 16.952 173.113 16.4 173.689 16.064C174.265 15.728 175.093 15.56 176.173 15.56C176.917 15.56 178.213 15.62 180.061 15.74V14.3C180.061 12.788 179.977 11.708 179.809 11.06C179.641 10.412 179.329 9.98 178.873 9.764C178.417 9.548 177.649 9.44 176.569 9.44C175.225 9.44 173.977 9.56 172.825 9.8V7.784C174.313 7.496 175.777 7.352 177.217 7.352C178.633 7.352 179.701 7.556 180.421 7.964C181.165 8.372 181.681 9.068 181.969 10.052C182.281 11.012 182.437 12.44 182.437 14.336V26H180.313L180.169 23.48H179.989C179.557 25.352 178.321 26.288 176.281 26.288ZM176.893 24.128C177.637 24.128 178.237 24.032 178.693 23.84C179.149 23.624 179.473 23.156 179.665 22.436C179.929 21.548 180.061 20.3 180.061 18.692V17.36H176.749C176.101 17.36 175.609 17.444 175.273 17.612C174.937 17.78 174.697 18.104 174.553 18.584C174.433 19.064 174.373 19.796 174.373 20.78C174.373 21.716 174.433 22.412 174.553 22.868C174.697 23.324 174.937 23.648 175.273 23.84C175.633 24.032 176.173 24.128 176.893 24.128ZM186.012 7.64H188.136L188.28 10.988H188.496C188.784 9.596 189.252 8.648 189.9 8.144C190.572 7.616 191.448 7.352 192.528 7.352V9.872C190.992 9.872 189.912 10.424 189.288 11.528C188.688 12.608 188.388 14.372 188.388 16.82V26H186.012V7.64Z" fill="#FF0000"/>
</g>
<defs>
<clipPath id="clip0">
<rect width="197" height="32" fill="white"/>
</clipPath>
</defs>
</svg>
